
<svg width="41px" height="20px" viewBox="0 0 41 20" xmlns="http://www.w3.org/2000/svg">
    <g id="3.0" stroke="none" stroke-width="1" fill-rule="evenodd">
        <g id="Home-full-page" transform="translate(-302.000000, -3980.000000)" fill-rule="nonzero">
            <g id="arrow" transform="translate(302.000000, 3980.000000)">
                <path d="M34.1715729,12 L29.5857864,16.5857864 C28.8047379,17.366835 28.8047379,18.633165 29.5857864,19.4142136 C30.366835,20.1952621 31.633165,20.1952621 32.4142136,19.4142136 L40.4142136,11.4142136 C41.1952621,10.633165 41.1952621,9.36683502 40.4142136,8.58578644 L32.4142136,0.585786438 C31.633165,-0.195262146 30.366835,-0.195262146 29.5857864,0.585786438 C28.8047379,1.36683502 28.8047379,2.63316498 29.5857864,3.41421356 L34.1715729,8 L2,8 C0.8954305,8 0,8.8954305 0,10 C0,11.1045695 0.8954305,12 2,12 L34.1715729,12 Z" id="Combined-Shape"></path>
            </g>
        </g>
    </g>
</svg>
