<svg viewBox="0 0 64 64" xmlns="http://www.w3.org/2000/svg">
    <g id="2.0" stroke="none" stroke-width="1" fill-rule="evenodd">
        <g id="icons" transform="translate(-482.000000, -69.000000)">
            <g id="Imported-Layers" transform="translate(80.000000, 69.000000)">
                <g id="instagram" transform="translate(402.000000, 0.000000)">
                    <path d="M58.0293841,44.855751 C57.8870349,47.9617326 57.366019,49.6485125 56.9279238,50.7710513 C56.3476063,52.2580327 55.654273,53.319241 54.5349079,54.4339396 C53.4155429,55.5487647 52.3497651,56.2390812 50.8566857,56.8169794 C49.7294476,57.2532483 48.0354794,57.7722186 44.9164952,57.9139744 C41.5437968,58.0672375 40.5321143,58.0996099 31.9898921,58.0996099 C23.4476698,58.0996099 22.4359873,58.0672375 19.0632889,57.9139744 C15.9443048,57.7722186 14.2504635,57.2532483 13.1232254,56.8169794 C11.630019,56.2390812 10.5643683,55.5487647 9.44500317,54.4340661 C8.32551111,53.319241 7.63217778,52.2580327 7.0519873,50.7710513 C6.61389206,49.6485125 6.09274921,47.9617326 5.9504,44.855751 C5.79649524,41.496607 5.7639873,40.489142 5.7639873,31.9830367 C5.7639873,23.4769315 5.79649524,22.46934 5.9504,19.110196 C6.09274921,16.0043409 6.61389206,14.3174345 7.0519873,13.1948957 C7.63217778,11.7079143 8.32551111,10.646706 9.44487619,9.53200736 C10.5643683,8.41730874 11.630019,7.7268658 13.1232254,7.14896759 C14.2504635,6.7126987 15.9443048,6.19385485 19.0631619,6.05209908 C22.4364952,5.89883592 23.4481778,5.86633705 31.9898921,5.86633705 C40.5316063,5.86633705 41.5432889,5.89883592 44.9164952,6.05209908 C48.0354794,6.19385485 49.7294476,6.7126987 50.8566857,7.14896759 C52.3497651,7.7268658 53.4155429,8.41730874 54.5349079,9.53200736 C55.654273,10.646706 56.3476063,11.7079143 56.9279238,13.1948957 C57.366019,14.3174345 57.8870349,16.0043409 58.0293841,19.110196 C58.1832889,22.46934 58.2159238,23.4769315 58.2159238,31.9830367 C58.2159238,40.489142 58.1832889,41.496607 58.0293841,44.855751 M63.7873524,18.8485611 C63.6319238,15.4578034 63.0912254,13.142164 62.3003683,11.1157267 C61.4828444,9.02087726 60.3890032,7.24431447 58.6105905,5.47331569 C56.8321778,3.70219045 55.0481778,2.61303568 52.9445587,1.79891999 C50.9096381,1.01135981 48.5843048,0.472789022 45.1792254,0.318134862 C41.7672889,0.163101338 40.6778921,0.12642946 31.9898921,0.12642946 C23.3018921,0.12642946 22.2126222,0.163101338 18.8005587,0.318134862 C15.3954794,0.472789022 13.070146,1.01135981 11.0352254,1.79891999 C8.93160635,2.61303568 7.14760635,3.70219045 5.36919365,5.47331569 C3.59078095,7.24431447 2.49693968,9.02087726 1.67941587,11.1157267 C0.88855873,13.142164 0.347860317,15.4578034 0.192431746,18.8485611 C0.0367492063,22.2464003 5.07936508e-05,23.3312556 5.07936508e-05,31.9830367 C5.07936508e-05,40.6346914 0.0367492063,41.7195467 0.192431746,45.1173859 C0.347860317,48.50827 0.88855873,50.8239094 1.67941587,52.8503468 C2.49693968,54.9450697 3.59078095,56.721759 5.36919365,58.4927578 C7.14760635,60.2637565 8.93160635,61.3530378 11.0352254,62.1671534 C13.070146,62.9545872 15.3954794,63.493158 18.8005587,63.6478121 C22.2126222,63.8029721 23.3018921,63.8395175 31.9898921,63.8395175 C40.6778921,63.8395175 41.7672889,63.8029721 45.1792254,63.6478121 C48.5843048,63.493158 50.9096381,62.9545872 52.9445587,62.1671534 C55.0481778,61.3530378 56.8321778,60.2637565 58.6105905,58.4927578 C60.3890032,56.721759 61.4828444,54.9450697 62.3003683,52.8503468 C63.0912254,50.8239094 63.6319238,48.50827 63.7873524,45.1173859 C63.9430349,41.7195467 63.9798603,40.6346914 63.9798603,31.9830367 C63.9798603,23.3312556 63.9430349,22.2464003 63.7873524,18.8485611" id="Fill-1"></path>
                    <path d="M31.9899048,42.6018341 C26.1007619,42.6018341 21.3265397,37.8476413 21.3265397,31.9830494 C21.3265397,26.1183309 26.1007619,21.3641381 31.9899048,21.3641381 C37.8790476,21.3641381 42.6532698,26.1183309 42.6532698,31.9830494 C42.6532698,37.8476413 37.8790476,42.6018341 31.9899048,42.6018341 M31.9899048,15.6242305 C22.9173968,15.6242305 15.5626032,22.9482368 15.5626032,31.9830494 C15.5626032,41.0177355 22.9173968,48.3417417 31.9899048,48.3417417 C41.0624127,48.3417417 48.4172063,41.0177355 48.4172063,31.9830494 C48.4172063,22.9482368 41.0624127,15.6242305 31.9899048,15.6242305" id="Fill-4"></path>
                    <path d="M49.0662095,11.1551047 C46.9460825,11.1551047 45.2274794,12.8666697 45.2274794,14.9778318 C45.2274794,17.0891203 46.9460825,18.8006854 49.0662095,18.8006854 C51.1863365,18.8006854 52.9049397,17.0891203 52.9049397,14.9778318 C52.9049397,12.8666697 51.1863365,11.1551047 49.0662095,11.1551047" id="Fill-6"></path>
                </g>
            </g>
        </g>
    </g>
</svg>
