
<svg viewBox="544 38 352 23" xmlns="http://www.w3.org/2000/svg">
    <g id="tmp-logotype" stroke="none" stroke-width="1" fill-rule="evenodd" transform="translate(544.000000, 38.000000)">
        <polygon id="Line" fill-rule="nonzero" points="0.996223876 22.469678 31.845548 22.469678 31.845548 20.9278764 0.996223876 20.9278764"></polygon>
        <path d="M22.3555621,15.0534935 C21.8067676,15.5685403 21.1207744,15.9716205 20.9149765,15.9716205 C20.7549114,15.9492271 20.7091785,15.7700804 20.8692436,15.0982802 L21.9668326,10.2837121 C22.5156272,7.9324114 21.8067676,7.55172462 21.1665073,7.55172462 C20.6863121,7.55172462 20.0917847,7.75326468 19.4286579,8.13395146 C18.5597333,8.62660494 17.0505483,9.76866528 15.7014284,11.4929525 L15.6556955,11.4929525 C16.3188223,8.42506488 16.9133497,5.51393068 17.55361,2.51322311 C17.6908086,1.93099627 17.6679422,1.75184955 17.3935449,1.75184955 C17.0276819,1.75184955 15.9986921,2.13253633 15.1983668,2.40125641 L15.1297674,2.71476317 C14.9925688,3.05066327 14.7181716,3.14023663 13.1861202,3.14023663 L3.78801383,3.14023663 C3.17061998,3.14023663 2.96482203,3.09544995 2.73615764,2.58040313 L2.16449668,2.58040313 C1.91296585,3.78964349 1.50136995,5.33478395 1.02117474,6.72317104 L1.82150009,6.72317104 C2.30169531,5.73786408 2.69042477,5.11085055 3.07915423,4.70777043 C3.51361656,4.21511695 4.06241109,4.01357689 5.93745907,4.01357689 L7.28657896,4.01357689 L4.88560289,14.7623801 C4.45114055,16.6434207 4.29107548,16.8225674 2.43889394,16.9793208 L2.27882887,17.6735143 L9.11589406,17.6735143 L9.29882557,16.9793208 C7.24084608,16.800174 7.10364745,16.6434207 7.49237691,14.7623801 L9.7332879,4.01357689 L10.830877,4.01357689 C12.3400619,4.01357689 13.5748496,4.10315025 14.8325037,4.21511695 C13.9864455,8.78335832 12.9574558,13.6427131 12.0199318,17.7630877 L12.1799969,17.9422344 C12.9117229,17.7406943 13.7349147,17.5615476 14.4895072,17.4719742 C14.7181716,16.2851272 15.106901,14.2697266 15.3812983,13.172453 C16.4560209,11.4257724 18.5597333,9.34319182 19.3829251,9.34319182 C19.7030552,9.34319182 19.794521,9.70148526 19.588723,10.6196122 L18.3996682,15.6357204 C17.9880723,17.3376142 18.285336,17.9422344 18.9484627,17.9422344 C19.7030552,17.9422344 21.2351066,17.1584675 22.6756922,15.680507 L22.3555621,15.0534935 Z M31.6622027,14.6504134 C30.5646136,15.680507 29.284093,16.3299139 28.3694355,16.3299139 C27.1117814,16.3299139 26.7001855,15.2326402 26.7001855,14.0681866 C26.7001855,13.8890398 26.7001855,13.6874998 26.7230519,13.4187797 C28.9868293,12.8365529 32.668326,11.6944925 32.668326,9.43276518 C32.668326,8.42506488 31.8908671,7.55172462 30.427415,7.55172462 C29.284093,7.55172462 27.8435074,8.20113148 26.9059834,8.91771836 C25.1681341,10.2389254 24.2077436,12.5230461 24.2077436,14.6056267 C24.2077436,17.2704342 25.6711957,17.9422344 26.9059834,17.9422344 C28.3237026,17.9422344 30.061552,17.3376142 32.096665,15.2326402 L31.6622027,14.6504134 Z M29.489891,8.53703158 C29.9014869,8.53703158 30.4502814,8.89532502 30.4502814,9.74627194 C30.4502814,10.8883323 29.5584903,11.8512459 26.8145177,12.6350128 C27.1575142,10.2837121 28.1407711,9.11925842 28.6895656,8.78335832 C28.91823,8.62660494 29.2383602,8.53703158 29.489891,8.53703158 L29.489891,8.53703158 Z" id="The"></path>
        <path d="M71.3416927,0.5914628 L65.5793501,0.5914628 L55.1865537,16.9833877 C53.848867,11.1387259 52.7169783,5.9658644 51.5850896,0.5914628 L45.6512487,0.5914628 L45.3768514,1.53198308 C48.5667197,1.80070316 48.7725176,2.10301325 47.7778275,5.36124422 L45.7884473,12.0456562 C44.5536597,16.1100474 43.9362658,18.024678 43.3874713,19.3682784 C42.8043771,20.8126488 42.1183839,21.282909 40.1976031,21.450859 L39.9575055,22.3913793 L47.7092282,22.3913793 L47.9150261,21.450859 C45.4454508,21.215729 45.1024542,20.8126488 45.3425518,19.3346884 C45.5140501,18.159038 45.9599456,16.3787675 46.9203361,12.9189965 L49.3899114,4.18559387 L49.4928104,4.18559387 C50.7275981,10.6012858 51.8251872,16.2779975 52.8884766,22.2570193 L53.7116684,22.2570193 L64.8590573,3.88328378 L64.9619562,3.88328378 C64.2416634,8.51870517 63.4870709,12.8854065 62.7324785,17.8231379 C62.2179836,21.0141889 62.0464853,21.1821389 59.4740109,21.450859 L59.2339133,22.3913793 L68.1175248,22.3913793 L68.3233227,21.450859 C65.6136497,21.1821389 65.4078518,21.0813689 65.8194477,17.8231379 C66.4025419,13.4228466 66.9170368,9.49281546 67.6716292,4.622264 C68.0832251,1.90147319 68.1861241,1.76711315 71.101595,1.53198308 L71.3416927,0.5914628 Z M87.8131506,0.0540226391 C80.6102224,0.0540226391 75.2937754,6.33535452 75.2937754,13.3556666 C75.2937754,19.0659683 79.0324381,22.8952295 84.4517841,22.8952295 C91.7919109,22.8952295 97.0054589,16.8490277 97.0054589,9.69435552 C97.0054589,4.05123383 93.3353955,0.0540226391 87.8131506,0.0540226391 L87.8131506,0.0540226391 Z M87.573053,1.263263 C91.8262106,1.263263 93.4039948,4.82380406 93.4039948,9.25768539 C93.4039948,14.8336271 90.2141266,21.6859891 84.7261813,21.6859891 C80.6788217,21.6859891 78.8609398,18.2262181 78.8609398,13.7587467 C78.8609398,7.77972495 82.3938046,1.263263 87.573053,1.263263 L87.573053,1.263263 Z M104.730504,0.5914628 L104.490406,1.53198308 C107.234379,1.83429317 107.371578,2.03583323 106.857083,4.72303403 L104.18171,18.3269881 C103.701514,20.8798289 103.461417,21.1821389 100.820343,21.450859 L100.580245,22.3913793 L108.12617,22.3913793 C112.447927,22.3913793 115.774994,21.7195791 118.724765,19.9057186 C122.360528,17.6887779 124.384208,13.9266968 124.384208,9.72794553 C124.384208,3.31225361 120.062451,0.5914628 113.305419,0.5914628 L104.730504,0.5914628 Z M110.14985,3.78251375 C110.355648,2.67404342 110.527146,2.30455331 110.870143,2.10301325 C111.281739,1.83429317 112.036331,1.73352314 113.031021,1.73352314 C117.935872,1.76711315 120.782744,4.58867399 120.782744,9.52640547 C120.782744,15.8077373 116.838283,21.1149589 110.11555,21.1485489 C109.18946,21.1485489 108.331968,21.0141889 107.783174,20.6782888 C107.16578,20.3087987 107.09718,19.6705885 107.405877,17.991088 L110.14985,3.78251375 Z M131.972055,0.5914628 L131.731957,1.53198308 C134.544529,1.76711315 134.716027,1.96865321 134.167233,4.65585401 L131.491859,18.3269881 C130.943065,21.0141889 130.668668,21.215729 127.924695,21.450859 L127.684597,22.3913793 L143.874036,22.3913793 C144.354231,21.316499 145.623319,18.159038 146.000615,17.1849278 L145.005925,16.8490277 C144.285632,18.091858 143.49674,19.3010984 142.673548,20.0400786 C141.747457,20.9134189 140.718467,21.1821389 138.248892,21.1821389 C136.396711,21.1821389 135.40202,21.1149589 134.887526,20.6782888 C134.44163,20.2752087 134.40733,19.4018684 134.750327,17.5544179 L135.882216,11.6761661 L139.003485,11.6761661 C141.953255,11.6761661 141.953255,11.9112962 141.884656,14.3297769 L142.913646,14.3297769 L144.217033,7.88049498 L143.188043,7.88049498 C142.364851,10.0974356 142.159053,10.3325657 139.277882,10.3325657 L136.156613,10.3325657 L137.562899,3.14430356 C137.802996,1.90147319 137.905895,1.76711315 139.106384,1.76711315 L141.575959,1.76711315 C144.011235,1.76711315 144.49143,2.06942324 144.868726,2.84199347 C145.246022,3.48020366 145.314622,4.52149397 145.348921,5.83150436 L146.377911,5.76432434 C146.618009,3.81610376 146.926706,1.263263 147.029605,0.5914628 L131.972055,0.5914628 Z M170.463893,21.7867591 C169.640701,21.518039 168.989008,21.215729 168.200116,20.2080287 C167.514122,19.3010984 166.896729,18.2262181 166.073537,16.6474876 C165.284645,15.1023471 164.392854,13.0197665 164.049857,12.1464263 C166.828129,11.205906 169.400604,9.15691536 169.400604,5.76432434 C169.400604,3.74892374 168.508813,2.40532334 167.274025,1.63275311 C166.073537,0.82659287 164.221355,0.5914628 162.334874,0.5914628 L154.651751,0.5914628 L154.445953,1.53198308 C157.155626,1.76711315 157.292824,1.90147319 156.778329,4.622264 L154.102956,18.125448 C153.519862,21.0141889 153.314064,21.1821389 150.70729,21.450859 L150.467192,22.3913793 L159.350804,22.3913793 L159.556602,21.450859 C156.846929,21.215729 156.606831,21.0141889 157.189925,18.091858 L158.150316,12.8518165 L159.488002,12.8518165 C160.68849,12.8518165 161.134386,13.1541266 161.648881,14.3969569 C162.369174,16.1100474 163.089467,17.7895479 163.946958,19.3682784 C165.147446,21.5852191 166.279335,22.5257394 169.7779,22.6600994 L170.189496,22.6600994 L170.463893,21.7867591 Z M158.390413,11.7433461 L160.002497,3.51379367 C160.173996,2.64045341 160.345494,2.23737329 160.619891,2.03583323 C160.928588,1.80070316 161.443083,1.69993313 162.129076,1.69993313 C164.495753,1.69993313 166.004937,3.14430356 166.004937,6.03304442 C166.004937,8.08203504 165.010247,9.89589558 163.466763,10.9035959 C162.472073,11.5418061 161.305884,11.7433461 159.865299,11.7433461 L158.390413,11.7433461 Z M200.586615,0.5914628 L192.800593,0.5914628 L192.526195,1.53198308 C195.03007,1.66634312 195.647464,2.03583323 195.510266,3.6145637 C195.441666,4.55508398 195.235868,6.20099447 194.618474,9.35845542 L193.07499,17.3864678 L192.972091,17.3864678 L183.05949,0.5914628 L177.880241,0.5914628 L177.640144,1.53198308 C179.458026,1.63275311 180.109719,1.83429317 180.521315,2.53968338 C180.932911,3.2786636 181.070109,3.81610376 180.692813,5.66355431 L178.97783,13.6579767 C178.291837,16.7818476 177.914541,18.2933981 177.537245,19.4354584 C177.091349,20.9134189 176.302457,21.350089 174.518875,21.450859 L174.278777,22.3913793 L182.236298,22.3913793 L182.442096,21.450859 C180.04112,21.282909 179.423726,20.9134189 179.526625,19.3682784 C179.595224,18.2598081 179.801022,16.6138976 180.384116,13.7251567 L182.133399,4.99175411 L182.236298,4.99175411 L192.320397,22.6600994 L193.486586,22.6600994 L196.05906,9.35845542 C196.676454,6.20099447 197.122349,4.52149397 197.396747,3.64815371 C197.842642,2.17019327 198.288538,1.63275311 200.380817,1.53198308 L200.586615,0.5914628 Z M217.408691,0.5914628 L217.168594,1.53198308 C219.878267,1.80070316 220.049765,2.00224322 219.53527,4.65585401 L216.791298,18.1926281 C216.208203,21.0141889 215.968106,21.1821389 213.361332,21.450859 L213.121234,22.3913793 L222.485041,22.3913793 L222.690839,21.450859 C219.56957,21.1821389 219.329472,20.9805989 219.878267,18.1926281 L220.907257,12.9189965 L223.239633,13.6243867 C223.61693,13.6243867 224.062825,13.6243867 224.508721,13.5907967 C228.384582,13.3220766 232.706339,11.0043659 232.706339,6.2681745 C232.706339,2.43891335 230.065265,0.5914628 225.331912,0.5914628 L217.408691,0.5914628 Z M222.725138,3.58097369 C222.930936,2.50609337 223.171034,2.13660326 223.54833,1.96865321 C223.891327,1.80070316 224.371522,1.69993313 224.988916,1.69993313 C227.801488,1.69993313 229.344972,3.31225361 229.344972,6.10022444 C229.344972,10.3997457 226.120805,12.2471963 223.58263,12.2471963 C222.416442,12.2471963 221.59325,11.9784762 221.147354,11.8105262 L222.725138,3.58097369 Z M255.317436,21.7867591 C254.494244,21.518039 253.84255,21.215729 253.053658,20.2080287 C252.367665,19.3010984 251.750271,18.2262181 250.927079,16.6474876 C250.138187,15.1023471 249.246396,13.0197665 248.9034,12.1464263 C251.681672,11.205906 254.254146,9.15691536 254.254146,5.76432434 C254.254146,3.74892374 253.362355,2.40532334 252.127567,1.63275311 C250.927079,0.82659287 249.074898,0.5914628 247.188417,0.5914628 L239.505293,0.5914628 L239.299495,1.53198308 C242.009168,1.76711315 242.146367,1.90147319 241.631872,4.622264 L238.956499,18.125448 C238.373405,21.0141889 238.167607,21.1821389 235.560833,21.450859 L235.320735,22.3913793 L244.204346,22.3913793 L244.410144,21.450859 C241.700471,21.215729 241.460374,21.0141889 242.043468,18.091858 L243.003858,12.8518165 L244.341545,12.8518165 C245.542033,12.8518165 245.987929,13.1541266 246.502424,14.3969569 C247.222716,16.1100474 247.943009,17.7895479 248.800501,19.3682784 C250.000989,21.5852191 251.132877,22.5257394 254.631443,22.6600994 L255.043038,22.6600994 L255.317436,21.7867591 Z M243.243956,11.7433461 L244.85604,3.51379367 C245.027538,2.64045341 245.199037,2.23737329 245.473434,2.03583323 C245.782131,1.80070316 246.296626,1.69993313 246.982619,1.69993313 C249.349295,1.69993313 250.85848,3.14430356 250.85848,6.03304442 C250.85848,8.08203504 249.86379,9.89589558 248.320305,10.9035959 C247.325615,11.5418061 246.159427,11.7433461 244.718841,11.7433461 L243.243956,11.7433461 Z M273.606775,0.0540226391 C266.403847,0.0540226391 261.0874,6.33535452 261.0874,13.3556666 C261.0874,19.0659683 264.826063,22.8952295 270.245409,22.8952295 C277.585536,22.8952295 282.799084,16.8490277 282.799084,9.69435552 C282.799084,4.05123383 279.12902,0.0540226391 273.606775,0.0540226391 L273.606775,0.0540226391 Z M273.366678,1.263263 C277.619835,1.263263 279.19762,4.82380406 279.19762,9.25768539 C279.19762,14.8336271 276.007752,21.6859891 270.519806,21.6859891 C266.472447,21.6859891 264.654565,18.2262181 264.654565,13.7587467 C264.654565,7.77972495 268.187429,1.263263 273.366678,1.263263 L273.366678,1.263263 Z M290.592728,0.5914628 L290.352631,1.53198308 C293.062304,1.80070316 293.233802,2.00224322 292.719307,4.65585401 L289.975334,18.1926281 C289.39224,21.0141889 289.152143,21.1821389 286.545369,21.450859 L286.305271,22.3913793 L295.669078,22.3913793 L295.874876,21.450859 C292.753607,21.1821389 292.513509,20.9805989 293.062304,18.1926281 L294.091293,12.9189965 L296.42367,13.6243867 C296.800966,13.6243867 297.246862,13.6243867 297.692757,13.5907967 C301.568619,13.3220766 305.890376,11.0043659 305.890376,6.2681745 C305.890376,2.43891335 303.249302,0.5914628 298.515949,0.5914628 L290.592728,0.5914628 Z M295.909175,3.58097369 C296.114973,2.50609337 296.355071,2.13660326 296.732367,1.96865321 C297.075364,1.80070316 297.555559,1.69993313 298.172953,1.69993313 C300.985525,1.69993313 302.529009,3.31225361 302.529009,6.10022444 C302.529009,10.3997457 299.304841,12.2471963 296.766667,12.2471963 C295.600478,12.2471963 294.777287,11.9784762 294.331391,11.8105262 L295.909175,3.58097369 Z M312.586431,0.5914628 L312.346334,1.53198308 C315.158906,1.76711315 315.330404,1.96865321 314.781609,4.65585401 L312.106236,18.3269881 C311.557441,21.0141889 311.283044,21.215729 308.539071,21.450859 L308.298974,22.3913793 L324.488413,22.3913793 C324.968608,21.316499 326.237695,18.159038 326.614991,17.1849278 L325.620301,16.8490277 C324.900008,18.091858 324.111116,19.3010984 323.287924,20.0400786 C322.361834,20.9134189 321.332844,21.1821389 318.863269,21.1821389 C317.011087,21.1821389 316.016397,21.1149589 315.501902,20.6782888 C315.056007,20.2752087 315.021707,19.4018684 315.364703,17.5544179 L316.496592,11.6761661 L319.617861,11.6761661 C322.567632,11.6761661 322.567632,11.9112962 322.499032,14.3297769 L323.528022,14.3297769 L324.831409,7.88049498 L323.802419,7.88049498 C322.979228,10.0974356 322.77343,10.3325657 319.892258,10.3325657 L316.770989,10.3325657 L318.177275,3.14430356 C318.417373,1.90147319 318.520272,1.76711315 319.72076,1.76711315 L322.190335,1.76711315 C324.625611,1.76711315 325.105806,2.06942324 325.483103,2.84199347 C325.860399,3.48020366 325.928998,4.52149397 325.963298,5.83150436 L326.992288,5.76432434 C327.232385,3.81610376 327.541082,1.263263 327.643981,0.5914628 L312.586431,0.5914628 Z M351.07827,21.7867591 C350.255078,21.518039 349.603384,21.215729 348.814492,20.2080287 C348.128499,19.3010984 347.511105,18.2262181 346.687913,16.6474876 C345.899021,15.1023471 345.00723,13.0197665 344.664234,12.1464263 C347.442506,11.205906 350.01498,9.15691536 350.01498,5.76432434 C350.01498,3.74892374 349.123189,2.40532334 347.888401,1.63275311 C346.687913,0.82659287 344.835732,0.5914628 342.949251,0.5914628 L335.266127,0.5914628 L335.060329,1.53198308 C337.770002,1.76711315 337.907201,1.90147319 337.392706,4.622264 L334.717333,18.125448 C334.134238,21.0141889 333.928441,21.1821389 331.321666,21.450859 L331.081569,22.3913793 L339.96518,22.3913793 L340.170978,21.450859 C337.461305,21.215729 337.221208,21.0141889 337.804302,18.091858 L338.764692,12.8518165 L340.102379,12.8518165 C341.302867,12.8518165 341.748763,13.1541266 342.263257,14.3969569 C342.98355,16.1100474 343.703843,17.7895479 344.561335,19.3682784 C345.761823,21.5852191 346.893711,22.5257394 350.392276,22.6600994 L350.803872,22.6600994 L351.07827,21.7867591 Z M339.00479,11.7433461 L340.616874,3.51379367 C340.788372,2.64045341 340.95987,2.23737329 341.234268,2.03583323 C341.542965,1.80070316 342.057459,1.69993313 342.743453,1.69993313 C345.110129,1.69993313 346.619314,3.14430356 346.619314,6.03304442 C346.619314,8.08203504 345.624624,9.89589558 344.081139,10.9035959 C343.086449,11.5418061 341.920261,11.7433461 340.479675,11.7433461 L339.00479,11.7433461 Z" id="MODERN-PROPER"></path>
    </g>
</svg>
