<svg viewBox="0 0 64 64" xmlns="http://www.w3.org/2000/svg">
    <g id="2.0" stroke="none" stroke-width="1" fill-rule="evenodd">
        <g id="icons" transform="translate(-304.000000, -75.000000)">
            <g id="Imported-Layers" transform="translate(80.000000, 69.000000)">
                <path d="M224,38 C224,51.172 231.961,62.484 243.33,67.396 C243.248,65.166 243.328,62.506 243.893,60.094 C244.514,57.49 248.029,42.594 248.029,42.594 C248.029,42.594 247.002,40.541 247.002,37.51 C247.002,32.756 249.764,29.197 253.195,29.197 C256.117,29.197 257.529,31.396 257.529,34.024 C257.529,36.959 255.656,41.35 254.69,45.416 C253.889,48.822 256.404,51.604 259.764,51.604 C265.844,51.604 269.94,43.789 269.94,34.525 C269.94,27.49 265.205,22.219 256.58,22.219 C246.842,22.219 240.766,29.484 240.766,37.602 C240.766,40.398 241.594,42.375 242.889,43.9 C243.482,44.602 243.563,44.885 243.346,45.693 C243.19,46.281 242.844,47.703 242.695,48.271 C242.482,49.084 241.82,49.369 241.086,49.07 C236.602,47.242 234.508,42.328 234.508,36.805 C234.508,27.68 242.203,16.74 257.461,16.74 C269.727,16.74 277.795,25.615 277.795,35.135 C277.795,47.74 270.789,57.148 260.467,57.148 C256.998,57.148 253.734,55.274 252.623,53.149 C252.623,53.149 250.752,60.541 250.361,61.975 C249.688,64.414 248.389,66.852 247.186,68.772 C249.982,69.571 252.939,70 256,70 C273.672,70 288,55.672 288,38 C288,20.328 273.672,6 256,6 C238.328,6 224,20.328 224,38 Z" id="pinterest"></path>
            </g>
        </g>
    </g>
</svg>
