<svg viewBox="0 0 64 64" xmlns="http://www.w3.org/2000/svg">
    <g id="2.0" stroke="none" stroke-width="1" fill-rule="evenodd">
        <g id="icons" transform="translate(-301.000000, -166.000000)">
            <g id="Imported-Layers" transform="translate(80.000000, 69.000000)">
                <path d="M274,161 C274,131.729 250.271,108 221,108 L221,97 C256.346,97 285,125.654 285,161 L274,161 L274,161 Z M262,161 L251,161 C251,144.431 237.569,131 221,131 L221,120 C243.644,120 262,138.356 262,161 L262,161 Z M229,145 C233.418,145 237,148.582 237,153 C237,157.418 233.418,161 229,161 C224.582,161 221,157.418 221,153 C221,148.582 224.582,145 229,145 L229,145 Z" id="rss"></path>
            </g>
        </g>
    </g>
</svg>
