
<svg width="36px" height="28px" viewBox="0 0 36 28" version="1.1" xmlns="http://www.w3.org/2000/svg" xmlns:xlink="http://www.w3.org/1999/xlink">
    <path d="M14,28 C6.2680135,28 0,21.7319865 0,14 C0,6.2680135 6.2680135,0 14,0 C21.7319865,0 28,6.2680135 28,14 C28,21.7319865 21.7319865,28 14,28 Z M14,24 C19.5228475,24 24,19.5228475 24,14 C24,8.4771525 19.5228475,4 14,4 C8.4771525,4 4,8.4771525 4,14 C4,19.5228475 8.4771525,24 14,24 Z" id="Oval-1" stroke="none" fill-rule="nonzero"></path>
    <polygon id="Line" stroke="none" fill-rule="nonzero" points="22.4554863 21.0838452 33.91317 27.9706643 35.9738385 24.5423054 24.5161548 17.6554863"></polygon>
</svg>
