<svg viewBox="0 0 130 130" xmlns="http://www.w3.org/2000/svg">
    <g id="3.0" stroke="none" stroke-width="1" fill-rule="evenodd" opacity="0.900000036">
        <g id="Home-full-page" transform="translate(-655.000000, -3861.000000)">
            <g id="Footer" transform="translate(0.000000, 3795.000000)">
                <g id="TMP-logo" transform="translate(655.000000, 66.000000)">
                    <path d="M98.2674699,42.8652811 C98.0278313,42.8652811 97.795241,42.8757229 97.5668273,42.8913855 C93.9122088,43.4740361 93.6067871,44.6829317 92.837751,49.6524297 C91.9838755,55.5118273 91.2393775,60.7768273 90.5327309,65.9473293 C91.6225904,66.2728514 93.2990161,66.6983534 95.2516265,66.6983534 C100.605643,66.6983534 108.373012,63.1518072 108.373012,52.9710843 C108.373012,46.711506 104.829859,42.8652811 98.2674699,42.8652811" id="Fill-1"></path>
                    <path d="M65,0 C29.1014659,0 0,29.1014659 0,65 C0,100.898534 29.1014659,130 65,130 C100.898534,130 130,100.898534 130,65 C130,29.1014659 100.898534,0 65,0 L65,0 Z M30.0333936,78.9079116 L14.914498,78.9079116 L15.2212249,77.3134538 L30.3803213,77.3134538 L30.0333936,78.9079116 L30.0333936,78.9079116 Z M27.1021285,68.4951205 C26.5685542,71.3530321 26.6818474,71.8464056 30.2265663,72.0766466 L29.9195783,73.3703815 L17.7319478,73.3703815 L18.0389357,72.0766466 C21.2364659,71.8464056 21.5397992,71.2762851 22.0733735,68.4951205 L25.6183534,50.2517871 L24.0176305,50.2517871 C21.1999197,50.2517871 20.5128514,50.6318675 19.7529518,51.4322289 C19.1024297,52.1558434 18.5688554,53.1827912 17.7721486,54.8968072 L16.398012,54.8968072 C17.1618273,52.4226305 17.8854418,49.7182129 18.3057229,47.7008635 L19.2961245,47.7008635 C19.6759438,48.5743173 20.0194779,48.6510643 21.0464257,48.6510643 L35.9752811,48.6510643 C36.9291365,48.6510643 37.1557229,48.4244779 37.8793373,47.7008635 L38.9464859,47.7008635 C38.6431526,49.1846386 38.2228715,52.5359237 37.9195382,54.8237149 L36.5088554,54.8968072 C36.5088554,53.146245 36.3955622,51.9658032 35.9387349,51.201988 C35.3686145,50.4418273 34.414759,50.2517871 32.470502,50.2517871 L30.5664458,50.2517871 L27.1021285,68.4951205 L27.1021285,68.4951205 Z M97.1374096,69.6392771 C96.1569277,69.7141968 95.1017871,69.7141968 94.1964859,69.7141968 L90.1912851,68.4604016 C89.7101807,72.0231325 89.2418675,75.5790763 88.7633735,79.2924297 C87.7831526,86.6820683 88.3141165,86.8316466 94.3455422,87.4375301 L93.8928916,89.4731526 L74.814739,89.4731526 L75.263996,87.4375301 C81.1492369,86.8316466 81.5235743,86.5322289 82.6570281,79.2924297 C84.239739,68.1314859 85.9756827,58.1755221 87.6333133,47.5421486 L87.4085542,47.5421486 L62.4454217,89.1700803 L60.7843976,89.1700803 C58.3710442,75.6707028 55.8830321,62.6991566 53.0953414,48.2944779 L52.8671888,48.2944779 L47.438253,68.2064056 C45.3245783,75.9737751 44.2694378,80.044759 43.8914458,82.686004 C43.3638755,86.0046586 44.0446787,86.9065663 49.6234538,87.4375301 L49.1708032,89.4731526 L32.2031928,89.4731526 L32.6558434,87.4375301 C37.0296386,87.0597992 38.5374297,86.0046586 39.7458032,82.8358434 C40.9507831,79.6667671 42.4619679,75.2180522 45.174739,65.5651606 L49.3989558,51.2385341 C51.5841566,43.6959237 51.2095582,43.1683534 44.0446787,42.4875502 L44.572249,40.5271084 L57.1663253,40.5271084 C59.729257,52.8961647 62.2955823,64.8128313 65.3863454,78.3122088 L86.7019076,43.9739357 C85.8381124,43.1004819 83.9805221,42.8180321 80.5331727,42.4875502 L80.9858233,40.5268474 L99.2510843,40.5268474 C99.2513454,40.5268474 99.2518675,40.5271084 99.2521285,40.5271084 L101.941145,40.5271084 L101.912952,40.6317871 C110.692129,41.3418273 115.085241,45.7025703 115.085241,53.1992369 C115.085241,63.9821888 105.28251,69.1117068 97.1374096,69.6392771 L97.1374096,69.6392771 Z" id="Fill-2"></path>
                </g>
            </g>
        </g>
    </g>
</svg>
