<svg viewBox="0 0 64 52" xmlns="http://www.w3.org/2000/svg">
    <g id="2.0" stroke="none" stroke-width="1" fill-rule="evenodd">
        <g id="icons" transform="translate(-80.000000, -75.000000)">
            <g id="Imported-Layers" transform="translate(80.000000, 69.000000)">
                <path d="M53.91,10.123 C56.105,9.935 58.957,8.708 60.637,7.856 C61.181,7.557 61.726,7.259 62.27,6.961 C61.311,9.555 60.01,11.584 58.01,13.125 C57.566,13.467 57.125,13.929 56.569,14.147 C59.418,14.149 61.768,12.864 64,12.167 C62.828,14.063 61.241,15.953 59.548,17.309 C58.864,17.851 58.181,18.394 57.498,18.937 C57.535,21.954 57.453,24.833 56.889,27.368 C53.61,42.106 44.921,52.112 31.167,56.398 C26.228,57.937 18.247,58.57 12.589,57.164 C9.782,56.468 7.248,55.682 4.869,54.642 C3.548,54.064 2.324,53.439 1.153,52.726 C0.769,52.491 0.384,52.257 0,52.023 C1.276,52.061 2.77,52.413 4.196,52.183 C5.487,51.974 6.753,52.029 7.944,51.768 C10.914,51.116 13.552,50.254 15.824,48.925 C16.925,48.281 18.597,47.523 19.38,46.594 C17.904,46.62 16.567,46.278 15.472,45.891 C11.224,44.391 8.752,41.634 7.143,37.492 C8.43,37.632 12.138,37.968 13.005,37.237 C11.385,37.147 9.827,36.209 8.713,35.512 C5.296,33.374 2.51,29.788 2.531,24.271 C2.979,24.484 3.427,24.696 3.876,24.909 C4.734,25.271 5.607,25.465 6.631,25.676 C7.063,25.765 7.928,26.019 8.424,25.835 C7.699,25.066 6.622,24.553 5.958,23.728 C3.766,21.003 1.712,16.81 3.011,11.816 C3.341,10.549 3.864,9.43 4.421,8.398 C4.74,8.965 5.309,9.357 5.67,9.804 C6.789,11.191 8.17,12.439 9.578,13.54 C14.372,17.29 18.69,19.594 25.626,21.3 C27.385,21.733 29.418,22.064 31.52,22.067 C30.929,20.348 31.119,17.567 31.584,15.903 C32.752,11.72 35.291,8.705 39.015,7.089 C39.906,6.703 40.893,6.421 41.93,6.195 C42.464,6.131 42.998,6.067 43.532,6.003 C48.617,5.913 51.324,7.766 53.91,10.123 Z" id="twitter"></path>
            </g>
        </g>
    </g>
</svg>
