<?xml version="1.0" standalone="no"?>
<!DOCTYPE svg PUBLIC "-//W3C//DTD SVG 20010904//EN"
 "http://www.w3.org/TR/2001/REC-SVG-20010904/DTD/svg10.dtd">
<svg version="1.0" xmlns="http://www.w3.org/2000/svg"
 width="700.000000pt" height="700.000000pt" viewBox="0 0 700.000000 700.000000"
 preserveAspectRatio="xMidYMid meet">
<metadata>
Created by potrace 1.11, written by Peter Selinger 2001-2013
</metadata>
<g transform="translate(0.000000,700.000000) scale(0.100000,-0.100000)"
fill="#000000" stroke="none">
<path d="M3360 6984 c-150 -8 -324 -27 -455 -49 -1355 -234 -2452 -1252 -2785
-2585 -75 -301 -102 -526 -102 -850 0 -324 27 -549 102 -850 310 -1242 1288
-2220 2530 -2530 301 -75 526 -102 850 -102 324 0 549 27 850 102 1242 310
2220 1288 2530 2530 75 301 102 526 102 850 0 324 -27 549 -102 850 -335 1340
-1450 2367 -2810 2589 -211 35 -526 54 -710 45z m-276 -2197 c3 -13 53 -246
110 -518 117 -551 312 -1435 324 -1461 5 -13 155 220 572 893 311 500 566 916
568 923 6 26 -158 75 -253 76 -60 0 -68 9 -58 61 l9 44 534 3 c347 2 570 -1
634 -8 355 -40 566 -195 637 -467 26 -101 28 -276 4 -383 -91 -400 -472 -672
-975 -697 -122 -5 -128 -5 -228 27 -56 18 -105 30 -108 27 -7 -6 -67 -452 -89
-657 -29 -267 0 -315 207 -341 51 -7 95 -14 97 -15 2 -2 -2 -26 -9 -53 l-12
-51 -509 0 c-280 0 -509 2 -509 5 0 2 5 26 11 53 l10 49 63 7 c86 9 173 32
207 56 35 25 74 105 93 190 8 36 47 272 86 525 39 253 102 658 141 899 38 241
69 446 67 454 -2 9 -306 -490 -676 -1107 l-674 -1122 -41 3 -42 3 -82 445
c-131 709 -325 1724 -333 1739 -10 18 -4 37 -169 -569 -272 -1002 -319 -1190
-328 -1315 -8 -127 34 -166 208 -194 108 -17 107 -17 88 -83 l-10 -38 -453 0
-453 0 12 52 11 52 75 12 c92 15 132 29 185 65 112 76 141 160 625 1824 124
426 109 466 -194 505 -38 4 -71 10 -73 13 -3 2 1 25 8 51 l12 46 337 0 337 0
6 -23z m-2020 -382 l16 -25 454 0 454 0 30 25 c17 14 42 25 57 25 26 0 27 -2
21 -37 -3 -21 -16 -105 -27 -188 -12 -82 -22 -151 -23 -152 0 0 -17 -4 -37 -8
l-36 -7 -5 80 c-5 96 -27 140 -78 158 -35 13 -240 19 -240 8 0 -3 -43 -232
-96 -508 -52 -275 -96 -523 -96 -549 -2 -64 19 -84 102 -98 36 -6 66 -12 68
-14 2 -2 1 -17 -3 -34 l-7 -31 -324 0 c-344 0 -331 -2 -318 47 5 17 16 23 53
28 100 14 133 41 155 130 9 33 56 269 106 525 49 256 92 476 95 489 l6 24
-118 -5 c-166 -6 -198 -27 -271 -175 -34 -68 -38 -73 -69 -73 -18 0 -33 5 -33
11 0 6 13 57 29 113 16 55 37 135 46 176 10 41 20 78 22 83 10 17 52 6 67 -18z
m572 -1587 c-3 -13 -6 -31 -6 -40 0 -17 -26 -18 -405 -18 -445 0 -415 -4 -399
58 l6 22 405 0 405 0 -6 -22z"/>
<path d="M5191 4675 c-105 -30 -146 -81 -175 -221 -27 -130 -147 -997 -139
-1005 13 -13 180 -39 250 -39 137 0 283 45 403 125 165 110 265 283 289 505
36 324 -88 547 -347 624 -81 24 -216 29 -281 11z"/>
</g>
</svg>
