<svg xmlns="http://www.w3.org/2000/svg" viewBox="0 0 16 16"><path class="a" d="M250,1C112.48,1,1,112.48,1,250S112.48,499,250,499,499,387.52,499,250,387.52,1,250,1ZM116.05,303.28H58.13l1.17-6.11h58.07Zm-11.23-39.89c-2,10.95-1.61,12.84,12,13.72l-1.18,5H68.93l1.18-5c12.25-.88,13.41-3.07,15.46-13.72L99.14,193.5H93c-10.79,0-13.43,1.46-16.34,4.52-2.49,2.77-4.54,6.71-7.59,13.27H63.82c2.93-9.48,5.7-19.84,7.31-27.57h3.79c1.46,3.35,2.77,3.64,6.71,3.64h57.19c3.65,0,4.52-.87,7.29-3.64h4.09c-1.16,5.68-2.77,18.52-3.93,27.29l-5.4.28c0-6.71-.43-11.23-2.18-14.15-2.18-2.91-5.84-3.64-13.29-3.64h-7.29Zm268.29,4.38c-3.76.29-7.8.29-11.27.29l-15.34-4.8c-1.84,13.65-3.64,27.27-5.47,41.49-3.76,28.31-1.72,28.88,21.38,31.2l-1.73,7.8H287.6l1.72-7.8c22.54-2.32,24-3.47,28.32-31.2,6.06-42.75,12.71-80.89,19.06-121.63h-.86L240.21,342.59h-6.36c-9.24-51.71-18.78-101.4-29.46-156.59h-.87l-20.8,76.28c-8.1,29.76-12.14,45.35-13.59,55.47-2,12.71.59,16.17,22,18.2l-1.73,7.8h-65l1.73-7.8c16.76-1.45,22.53-5.49,27.16-17.63s10.41-29.18,20.8-66.16l16.18-54.88c8.37-28.89,6.94-30.92-20.51-33.52l2-7.51H220c9.82,47.38,19.65,93,31.49,144.75l81.66-131.54c-3.31-3.35-10.43-4.43-23.63-5.69l1.73-7.51h80.27c33.63,2.72,50.35,19.83,50.35,48.54C441.87,246.1,404.31,265.75,373.11,267.77Z"/><path class="a" d="M377.44,165.21c-.92,0-1.81,0-2.68.1-14,2.23-15.17,6.86-18.12,25.9-3.27,22.45-6.12,42.61-8.83,62.42a63.12,63.12,0,0,0,18.08,2.88c20.51,0,50.27-13.59,50.27-52.59C416.15,179.94,402.58,165.21,377.44,165.21Z"/></svg>