<?xml version="1.0" encoding="UTF-8"?><!DOCTYPE svg PUBLIC "-//W3C//DTD SVG 1.1//EN" "http://www.w3.org/Graphics/SVG/1.1/DTD/svg11.dtd"><svg xmlns="http://www.w3.org/2000/svg"><symbol id="arrow-paginate" viewBox="0 0 41 20"><path d="M34.172 12l-4.586 4.586a2 2 0 0 0 2.828 2.828l8-8a2 2 0 0 0 0-2.828l-8-8a2 2 0 0 0-2.828 2.828L34.172 8H2a2 2 0 1 0 0 4h32.172z" fill-rule="nonzero"/></symbol><symbol id="chevron-down" viewBox="0 0 36 8"><path d="M1.332.069C.854-.111.294.07.082.475c-.213.404.002.877.48 1.056l17.053 6.4c.245.092.525.092.77 0l17.052-6.4c.478-.18.693-.652.48-1.056-.212-.404-.771-.586-1.25-.406L18 6.324 1.332.07z" fill-rule="nonzero"/></symbol><symbol id="close" viewBox="0 0 32 32"><g fill-rule="nonzero"><path d="M3.321 31.425L31.352 3.394 28.524.566.493 28.596z"/><path d="M31.343 28.597L3.312.566.483 3.394l28.032 28.031z"/></g></symbol><symbol id="facebook" viewBox="0 0 30 65"><path d="M29.96 11.297s-7.595-.757-9.496 2.154c-1.04 1.59-.423 6.248-.515 9.593h10.073c-.852 3.91-1.462 6.562-2.088 9.947h-8.041V65H5.938c.003-9.868-.002-21.38 0-31.884H0V23.044h5.873c.301-7.364.414-14.66 4.072-18.375C14.057.493 17.978.994 29.96.994v10.303z" fill-rule="evenodd"/></symbol><symbol id="hamburger" viewBox="39 57 36 26"><g fill-rule="nonzero"><path d="M39.45 82.4h35.112v-4H39.45zM39.45 72h35.112v-4H39.45zM39.45 61.6h35.112v-4H39.45z"/></g></symbol><symbol id="instagram" viewBox="0 0 64 64"><g fill-rule="evenodd"><path d="M58.03 44.856c-.143 3.106-.664 4.793-1.102 5.915-.58 1.487-1.274 2.548-2.393 3.663-1.12 1.115-2.185 1.805-3.678 2.383-1.128.436-2.822.955-5.94 1.097-3.373.153-4.385.186-12.927.186s-9.554-.033-12.927-.186c-3.119-.142-4.813-.66-5.94-1.097-1.493-.578-2.559-1.268-3.678-2.383-1.12-1.115-1.813-2.176-2.393-3.663-.438-1.122-.96-2.81-1.102-5.915-.154-3.36-.186-4.367-.186-12.873s.032-9.514.186-12.873c.143-3.106.664-4.793 1.102-5.915.58-1.487 1.274-2.548 2.393-3.663 1.12-1.115 2.185-1.805 3.678-2.383 1.127-.436 2.821-.955 5.94-1.097 3.373-.153 4.385-.186 12.927-.186s9.553.033 12.926.186c3.12.142 4.813.66 5.94 1.097 1.494.578 2.56 1.268 3.679 2.383 1.12 1.115 1.813 2.176 2.393 3.663.438 1.122.959 2.81 1.101 5.915.154 3.36.187 4.367.187 12.873s-.033 9.514-.187 12.873m5.758-26.007c-.155-3.391-.696-5.707-1.487-7.733-.817-2.095-1.911-3.872-3.69-5.643-1.778-1.77-3.562-2.86-5.665-3.674-2.035-.788-4.36-1.326-7.766-1.48C41.767.162 40.678.125 31.99.125c-8.687 0-9.776.037-13.188.192-3.406.155-5.73.693-7.766 1.48-2.103.815-3.887 1.904-5.666 3.675-1.778 1.771-2.872 3.548-3.69 5.643C.89 13.142.348 15.458.192 18.849.037 22.246 0 23.33 0 31.983c0 8.652.037 9.737.192 13.134.156 3.391.697 5.707 1.487 7.733.818 2.095 1.912 3.872 3.69 5.643 1.779 1.77 3.563 2.86 5.666 3.674 2.035.788 4.36 1.326 7.766 1.48 3.412.156 4.5.193 13.189.193 8.688 0 9.777-.037 13.19-.192 3.404-.155 5.73-.693 7.765-1.48 2.103-.815 3.887-1.904 5.666-3.675 1.778-1.771 2.872-3.548 3.69-5.643.79-2.026 1.33-4.342 1.486-7.733.156-3.397.193-4.482.193-13.134 0-8.652-.037-9.737-.193-13.134"/><path d="M31.99 42.602c-5.89 0-10.663-4.754-10.663-10.619S26.1 21.364 31.99 21.364s10.663 4.754 10.663 10.619S37.88 42.602 31.99 42.602m0-26.978c-9.073 0-16.427 7.324-16.427 16.359 0 9.035 7.354 16.359 16.427 16.359 9.072 0 16.427-7.324 16.427-16.359 0-9.035-7.355-16.359-16.427-16.359M49.066 11.155a3.83 3.83 0 0 0-3.839 3.823 3.83 3.83 0 0 0 3.84 3.823 3.83 3.83 0 0 0 3.838-3.823 3.83 3.83 0 0 0-3.839-3.823"/></g></symbol><symbol id="logotype" viewBox="544 38 352 23"><g fill-rule="evenodd"><path fill-rule="nonzero" d="M544.996 60.47h30.85v-1.542h-30.85z"/><path d="M566.356 53.053c-.55.516-1.235.919-1.441.919-.16-.023-.206-.202-.046-.874l1.098-4.814c.549-2.352-.16-2.732-.8-2.732-.48 0-1.075.201-1.738.582-.87.493-2.378 1.635-3.728 3.359h-.045c.663-3.068 1.257-5.98 1.898-8.98.137-.582.114-.761-.16-.761-.366 0-1.395.38-2.196.65l-.068.313c-.137.336-.412.425-1.944.425h-9.398c-.617 0-.823-.045-1.052-.56h-.572a35.609 35.609 0 0 1-1.143 4.143h.8c.48-.985.87-1.612 1.258-2.015.435-.493.983-.694 2.858-.694h1.35l-2.401 10.748c-.435 1.881-.595 2.06-2.447 2.217l-.16.695h6.837l.183-.695c-2.058-.179-2.195-.336-1.807-2.217l2.241-10.748h1.098c1.51 0 2.744.09 4.002.201a353.239 353.239 0 0 1-2.813 13.548l.16.18c.732-.202 1.555-.381 2.31-.471.228-1.187.617-3.202.891-4.3 1.075-1.746 3.179-3.829 4.002-3.829.32 0 .412.358.206 1.277l-1.19 5.016c-.41 1.702-.114 2.306.55 2.306.754 0 2.286-.784 3.727-2.261l-.32-.628zm9.306-.403c-1.097 1.03-2.378 1.68-3.293 1.68-1.257 0-1.669-1.097-1.669-2.262 0-.179 0-.38.023-.65 2.264-.581 5.945-1.724 5.945-3.985 0-1.008-.777-1.881-2.24-1.881-1.144 0-2.584.65-3.522 1.366-1.738 1.32-2.698 3.605-2.698 5.688 0 2.664 1.463 3.336 2.698 3.336 1.418 0 3.156-.604 5.19-2.71l-.434-.582zm-2.172-6.113c.411 0 .96.358.96 1.21 0 1.141-.892 2.104-3.635 2.888.343-2.351 1.326-3.516 1.875-3.852.228-.156.548-.246.8-.246zM615.342 38.591h-5.763l-10.392 16.392a937.586 937.586 0 0 1-3.602-16.392h-5.934l-.274.941c3.19.269 3.396.571 2.4 3.83l-1.989 6.684c-1.234 4.064-1.852 5.979-2.4 7.322-.584 1.445-1.27 1.915-3.19 2.083l-.24.94h7.751l.206-.94c-2.47-.235-2.813-.638-2.572-2.116.171-1.176.617-2.956 1.577-6.416l2.47-8.733h.103c1.235 6.415 2.332 12.092 3.395 18.071h.824l11.147-18.374h.103c-.72 4.636-1.475 9.002-2.23 13.94-.514 3.191-.686 3.36-3.258 3.628l-.24.94h8.884l.205-.94c-2.71-.269-2.915-.37-2.504-3.628.584-4.4 1.098-8.33 1.853-13.2.411-2.722.514-2.856 3.43-3.091l.24-.94zm16.471-.537c-7.203 0-12.52 6.281-12.52 13.302 0 5.71 3.74 9.54 9.159 9.54 7.34 0 12.553-6.047 12.553-13.202 0-5.643-3.67-9.64-9.192-9.64zm-.24 1.21c4.253 0 5.831 3.56 5.831 7.994 0 5.576-3.19 12.428-8.678 12.428-4.047 0-5.865-3.46-5.865-7.927 0-5.98 3.533-12.496 8.712-12.496zm17.158-.673l-.24.941c2.743.302 2.88.504 2.366 3.191l-2.675 13.604c-.48 2.553-.72 2.855-3.362 3.124l-.24.94h7.546c4.322 0 7.649-.671 10.599-2.485 3.636-2.217 5.66-5.98 5.66-10.178 0-6.416-4.323-9.137-11.08-9.137h-8.574zm5.419 3.192c.206-1.109.377-1.478.72-1.68.412-.269 1.166-.37 2.161-.37 4.905.034 7.752 2.856 7.752 7.793 0 6.282-3.945 11.589-10.667 11.623-.927 0-1.784-.135-2.333-.47-.617-.37-.686-1.008-.377-2.688l2.744-14.208zm21.822-3.192l-.24.941c2.813.235 2.984.437 2.435 3.124l-2.675 13.671c-.549 2.687-.823 2.889-3.567 3.124l-.24.94h16.189c.48-1.075 1.75-4.232 2.127-5.206l-.995-.336c-.72 1.243-1.51 2.452-2.332 3.191-.927.873-1.956 1.142-4.425 1.142-1.852 0-2.847-.067-3.361-.504-.446-.403-.48-1.276-.138-3.124l1.132-5.878h3.121c2.95 0 2.95.235 2.882 2.654h1.029l1.303-6.45h-1.029c-.823 2.217-1.029 2.453-3.91 2.453h-3.121l1.406-7.189c.24-1.243.343-1.377 1.543-1.377h2.47c2.435 0 2.915.302 3.293 1.075.377.638.446 1.68.48 2.99l1.029-.068c.24-1.948.549-4.5.652-5.173h-15.058zm38.492 21.196c-.823-.269-1.475-.571-2.264-1.579-.686-.907-1.303-1.982-2.126-3.56-.79-1.546-1.681-3.628-2.024-4.502 2.778-.94 5.35-2.99 5.35-6.382 0-2.015-.891-3.359-2.126-4.131-1.2-.806-3.053-1.042-4.94-1.042h-7.682l-.206.941c2.71.235 2.847.37 2.332 3.09l-2.675 13.503c-.583 2.89-.789 3.057-3.396 3.326l-.24.94h8.884l.206-.94c-2.71-.235-2.95-.437-2.367-3.36l.96-5.24h1.338c1.2 0 1.646.303 2.16 1.546.721 1.713 1.441 3.393 2.299 4.971 1.2 2.217 2.332 3.158 5.83 3.292h.412l.275-.873zM702.39 49.743l1.612-8.23c.172-.873.343-1.276.618-1.477.309-.235.823-.336 1.51-.336 2.366 0 3.875 1.444 3.875 4.333 0 2.049-.995 3.863-2.538 4.87-.995.639-2.161.84-3.602.84h-1.475zm42.197-11.152H736.8l-.275.941c2.504.134 3.121.504 2.984 2.083-.068.94-.274 2.586-.892 5.743l-1.543 8.028h-.103l-9.913-16.795h-5.179l-.24.941c1.818.1 2.47.302 2.881 1.008.412.739.55 1.276.172 3.124l-1.715 7.994c-.686 3.124-1.063 4.635-1.44 5.777-.447 1.478-1.236 1.915-3.02 2.016l-.24.94h7.958l.206-.94c-2.4-.168-3.018-.538-2.915-2.083.068-1.108.274-2.754.857-5.643l1.75-8.733h.102L736.32 60.66h1.167l2.572-13.302c.617-3.157 1.063-4.837 1.338-5.71.446-1.478.892-2.015 2.984-2.116l.206-.94zm16.822 0l-.24.941c2.71.269 2.88.47 2.366 3.124l-2.744 13.537c-.583 2.821-.823 2.99-3.43 3.258l-.24.94h9.364l.206-.94c-3.121-.269-3.362-.47-2.813-3.258l1.03-5.274 2.332.705c.377 0 .823 0 1.269-.033 3.876-.269 8.197-2.587 8.197-7.323 0-3.83-2.64-5.677-7.374-5.677h-7.923zm5.316 2.99c.206-1.075.446-1.444.823-1.612.343-.168.824-.27 1.44-.27 2.813 0 4.357 1.613 4.357 4.401 0 4.3-3.224 6.147-5.762 6.147a6.74 6.74 0 0 1-2.436-.436l1.578-8.23zm32.592 18.206c-.823-.269-1.474-.571-2.263-1.579-.686-.907-1.304-1.982-2.127-3.56-.789-1.546-1.68-3.628-2.024-4.502 2.779-.94 5.351-2.99 5.351-6.382 0-2.015-.892-3.359-2.126-4.131-1.2-.806-3.053-1.042-4.94-1.042h-7.683l-.206.941c2.71.235 2.847.37 2.333 3.09l-2.676 13.503c-.583 2.89-.788 3.057-3.395 3.326l-.24.94h8.883l.206-.94c-2.71-.235-2.95-.437-2.367-3.36l.96-5.24h1.339c1.2 0 1.646.303 2.16 1.546.72 1.713 1.441 3.393 2.299 4.971 1.2 2.217 2.332 3.158 5.83 3.292h.412l.274-.873zm-12.073-10.044l1.612-8.23c.172-.873.343-1.276.617-1.477.31-.235.824-.336 1.51-.336 2.366 0 3.875 1.444 3.875 4.333 0 2.049-.994 3.863-2.538 4.87-.994.639-2.16.84-3.601.84h-1.475zm30.363-11.689c-7.203 0-12.52 6.281-12.52 13.302 0 5.71 3.74 9.54 9.158 9.54 7.34 0 12.554-6.047 12.554-13.202 0-5.643-3.67-9.64-9.192-9.64zm-.24 1.21c4.253 0 5.83 3.56 5.83 7.994 0 5.576-3.19 12.428-8.677 12.428-4.048 0-5.865-3.46-5.865-7.927 0-5.98 3.532-12.496 8.712-12.496zm17.226-.673l-.24.941c2.71.269 2.88.47 2.366 3.124l-2.744 13.537c-.583 2.821-.823 2.99-3.43 3.258l-.24.94h9.364l.206-.94c-3.121-.269-3.361-.47-2.813-3.258l1.03-5.274 2.332.705c.377 0 .823 0 1.269-.033 3.876-.269 8.197-2.587 8.197-7.323 0-3.83-2.64-5.677-7.374-5.677h-7.923zm5.316 2.99c.206-1.075.446-1.444.823-1.612.343-.168.824-.27 1.441-.27 2.813 0 4.356 1.613 4.356 4.401 0 4.3-3.224 6.147-5.762 6.147a6.74 6.74 0 0 1-2.436-.436l1.578-8.23zm16.677-2.99l-.24.941c2.813.235 2.984.437 2.436 3.124l-2.676 13.671c-.549 2.687-.823 2.889-3.567 3.124l-.24.94h16.19c.48-1.075 1.749-4.232 2.126-5.206l-.995-.336c-.72 1.243-1.509 2.452-2.332 3.191-.926.873-1.955 1.142-4.425 1.142-1.852 0-2.847-.067-3.361-.504-.446-.403-.48-1.276-.137-3.124l1.132-5.878h3.12c2.95 0 2.95.235 2.882 2.654h1.029l1.303-6.45h-1.029c-.823 2.217-1.029 2.453-3.91 2.453h-3.121l1.406-7.189c.24-1.243.343-1.377 1.544-1.377h2.47c2.435 0 2.915.302 3.292 1.075.377.638.446 1.68.48 2.99l1.03-.068c.24-1.948.548-4.5.651-5.173h-15.058zm38.492 21.196c-.823-.269-1.475-.571-2.264-1.579-.686-.907-1.303-1.982-2.126-3.56-.789-1.546-1.68-3.628-2.024-4.502 2.779-.94 5.351-2.99 5.351-6.382 0-2.015-.892-3.359-2.127-4.131-1.2-.806-3.052-1.042-4.939-1.042h-7.683l-.206.941c2.71.235 2.847.37 2.333 3.09l-2.676 13.503c-.583 2.89-.789 3.057-3.395 3.326l-.24.94h8.883l.206-.94c-2.71-.235-2.95-.437-2.367-3.36l.96-5.24h1.338c1.2 0 1.647.303 2.161 1.546.72 1.713 1.44 3.393 2.298 4.971 1.2 2.217 2.333 3.158 5.831 3.292h.412l.274-.873zm-12.073-10.044l1.612-8.23c.171-.873.343-1.276.617-1.477.309-.235.823-.336 1.51-.336 2.366 0 3.875 1.444 3.875 4.333 0 2.049-.994 3.863-2.538 4.87-.995.639-2.16.84-3.601.84h-1.475z"/></g></symbol><symbol id="pinterest" viewBox="0 0 64 64"><path d="M0 32c0 13.172 7.961 24.484 19.33 29.396-.082-2.23-.002-4.89.563-7.302.621-2.604 4.136-17.5 4.136-17.5s-1.027-2.053-1.027-5.084c0-4.754 2.762-8.313 6.193-8.313 2.922 0 4.334 2.199 4.334 4.827 0 2.935-1.873 7.326-2.839 11.392-.801 3.406 1.714 6.188 5.074 6.188 6.08 0 10.176-7.815 10.176-17.079 0-7.035-4.735-12.306-13.36-12.306-9.738 0-15.814 7.265-15.814 15.383 0 2.796.828 4.773 2.123 6.298.593.702.674.985.457 1.793-.156.588-.502 2.01-.651 2.578-.213.813-.875 1.098-1.609.799-4.484-1.828-6.578-6.742-6.578-12.265 0-9.125 7.695-20.065 22.953-20.065 12.266 0 20.334 8.875 20.334 18.395 0 12.605-7.006 22.013-17.328 22.013-3.469 0-6.733-1.874-7.844-3.999 0 0-1.871 7.392-2.262 8.826-.673 2.439-1.972 4.877-3.175 6.797A32.035 32.035 0 0 0 32 64c17.672 0 32-14.328 32-32S49.672 0 32 0 0 14.328 0 32z" fill-rule="evenodd"/></symbol><symbol id="rss" viewBox="0 0 64 64"><path d="M53 64c0-29.271-23.729-53-53-53V0c35.346 0 64 28.654 64 64H53zm-12 0H30c0-16.569-13.431-30-30-30V23c22.644 0 41 18.356 41 41zM8 48a8 8 0 1 1 0 16 8 8 0 0 1 0-16z" fill-rule="evenodd"/></symbol><symbol id="search" viewBox="0 0 36 28"><path d="M14 28C6.268 28 0 21.732 0 14S6.268 0 14 0s14 6.268 14 14-6.268 14-14 14zm0-4c5.523 0 10-4.477 10-10S19.523 4 14 4 4 8.477 4 14s4.477 10 10 10z"/><path d="M22.455 21.084l11.458 6.887 2.06-3.429-11.457-6.887z"/></symbol><symbol id="tmp-icon" viewBox="0 0 130 130"><g fill-rule="evenodd" opacity=".9"><path d="M98.267 42.865c-.24 0-.472.01-.7.026-3.655.583-3.96 1.792-4.73 6.761a1829.74 1829.74 0 0 0-2.304 16.295c1.09.326 2.766.751 4.719.751 5.354 0 13.121-3.546 13.121-13.727 0-6.26-3.543-10.106-10.106-10.106"/><path d="M65 0C29.101 0 0 29.101 0 65s29.101 65 65 65 65-29.101 65-65S100.899 0 65 0zM30.033 78.908H14.914l.307-1.595h15.16l-.348 1.595zm-2.93-10.413c-.534 2.858-.421 3.351 3.124 3.582l-.307 1.293H17.732l.307-1.293c3.197-.23 3.5-.8 4.034-3.582l3.545-18.243h-1.6c-2.818 0-3.505.38-4.265 1.18-.65.724-1.184 1.75-1.98 3.465h-1.375c.764-2.474 1.487-5.179 1.908-7.196h.99c.38.873.723.95 1.75.95h14.93c.953 0 1.18-.227 1.903-.95h1.067c-.303 1.484-.723 4.835-1.026 7.123l-1.411.073c0-1.75-.113-2.931-.57-3.695-.57-.76-1.524-.95-3.468-.95h-1.905l-3.464 18.243zm70.034 1.144c-.98.075-2.035.075-2.94.075L90.19 68.46c-.48 3.563-.95 7.12-1.428 10.832-.98 7.39-.449 7.54 5.583 8.146l-.453 2.035H74.815l.449-2.035c5.885-.606 6.26-.906 7.393-8.146 1.583-11.16 3.319-21.116 4.976-31.75h-.224L62.445 89.17h-1.66c-2.414-13.5-4.902-26.47-7.69-40.876h-.228l-5.429 19.912c-2.113 7.768-3.169 11.839-3.547 14.48-.527 3.319.154 4.22 5.732 4.752l-.452 2.035H32.203l.453-2.035c4.374-.378 5.881-1.433 7.09-4.602 1.205-3.17 2.716-7.618 5.429-17.27l4.224-14.327c2.185-7.543 1.81-8.07-5.354-8.751l.527-1.96h12.594c2.563 12.368 5.13 24.285 8.22 37.784l21.316-34.338c-.864-.874-2.721-1.156-6.169-1.486l.453-1.961H101.942l-.029.105c8.78.71 13.172 5.07 13.172 12.567 0 10.783-9.802 15.913-17.948 16.44z"/></g></symbol><symbol id="twitter" viewBox="0 0 64 52"><path d="M53.91 4.123c2.195-.188 5.047-1.415 6.727-2.267L62.27.961c-.959 2.594-2.26 4.623-4.26 6.164-.444.342-.885.804-1.441 1.022 2.849.002 5.199-1.283 7.431-1.98-1.172 1.896-2.759 3.786-4.452 5.142l-2.05 1.628c.037 3.017-.045 5.896-.609 8.431-3.279 14.738-11.968 24.744-25.722 29.03-4.939 1.539-12.92 2.172-18.578.766-2.807-.696-5.341-1.482-7.72-2.522a30.903 30.903 0 0 1-3.716-1.916L0 46.023c1.276.038 2.77.39 4.196.16 1.291-.209 2.557-.154 3.748-.415 2.97-.652 5.608-1.514 7.88-2.843 1.101-.644 2.773-1.402 3.556-2.331-1.476.026-2.813-.316-3.908-.703-4.248-1.5-6.72-4.257-8.329-8.399 1.287.14 4.995.476 5.862-.255-1.62-.09-3.178-1.028-4.292-1.725-3.417-2.138-6.203-5.724-6.182-11.241l1.345.638c.858.362 1.731.556 2.755.767.432.089 1.297.343 1.793.159-.725-.769-1.802-1.282-2.466-2.107-2.192-2.725-4.246-6.918-2.947-11.912.33-1.267.853-2.386 1.41-3.418.319.567.888.959 1.249 1.406 1.119 1.387 2.5 2.635 3.908 3.736 4.794 3.75 9.112 6.054 16.048 7.76 1.759.433 3.792.764 5.894.767-.591-1.719-.401-4.5.064-6.164 1.168-4.183 3.707-7.198 7.431-8.814.891-.386 1.878-.668 2.915-.894l1.602-.192c5.085-.09 7.792 1.763 10.378 4.12z" fill-rule="evenodd"/></symbol></svg>